<mxfile host="app.diagrams.net" modified="2023-06-02T15:36:53.845Z" agent="Mozilla/5.0 (Windows NT 10.0; Win64; x64) AppleWebKit/537.36 (KHTML, like Gecko) Chrome/113.0.0.0 Safari/537.36 Edg/113.0.1774.57" etag="dRXpF8bLSkeeNpZ-BXSX" version="21.3.6" type="device">
  <diagram name="페이지-1" id="HfVHuUAZUQ8V5Ng_dq8U">
    <mxGraphModel dx="869" dy="1015" grid="0" gridSize="10" guides="1" tooltips="1" connect="1" arrows="1" fold="1" page="0" pageScale="1" pageWidth="827" pageHeight="1169" math="0" shadow="0">
      <root>
        <mxCell id="0" />
        <mxCell id="1" parent="0" />
        <mxCell id="2MSTq0rAdUkIuW6gPUsx-1" value="사용자" style="shape=umlLifeline;perimeter=lifelinePerimeter;whiteSpace=wrap;html=1;container=1;dropTarget=0;collapsible=0;recursiveResize=0;outlineConnect=0;portConstraint=eastwest;newEdgeStyle={&quot;edgeStyle&quot;:&quot;elbowEdgeStyle&quot;,&quot;elbow&quot;:&quot;vertical&quot;,&quot;curved&quot;:0,&quot;rounded&quot;:0};fontSize=16;" vertex="1" parent="1">
          <mxGeometry x="7" y="26" width="100" height="300" as="geometry" />
        </mxCell>
        <mxCell id="2MSTq0rAdUkIuW6gPUsx-10" value="" style="html=1;points=[];perimeter=orthogonalPerimeter;outlineConnect=0;targetShapes=umlLifeline;portConstraint=eastwest;newEdgeStyle={&quot;edgeStyle&quot;:&quot;elbowEdgeStyle&quot;,&quot;elbow&quot;:&quot;vertical&quot;,&quot;curved&quot;:0,&quot;rounded&quot;:0};fontSize=16;" vertex="1" parent="2MSTq0rAdUkIuW6gPUsx-1">
          <mxGeometry x="45" y="212" width="10" height="50" as="geometry" />
        </mxCell>
        <mxCell id="2MSTq0rAdUkIuW6gPUsx-2" value="시스템" style="shape=umlLifeline;perimeter=lifelinePerimeter;whiteSpace=wrap;html=1;container=1;dropTarget=0;collapsible=0;recursiveResize=0;outlineConnect=0;portConstraint=eastwest;newEdgeStyle={&quot;edgeStyle&quot;:&quot;elbowEdgeStyle&quot;,&quot;elbow&quot;:&quot;vertical&quot;,&quot;curved&quot;:0,&quot;rounded&quot;:0};fontSize=16;" vertex="1" parent="1">
          <mxGeometry x="203" y="26" width="100" height="300" as="geometry" />
        </mxCell>
        <mxCell id="2MSTq0rAdUkIuW6gPUsx-3" value="" style="html=1;points=[];perimeter=orthogonalPerimeter;outlineConnect=0;targetShapes=umlLifeline;portConstraint=eastwest;newEdgeStyle={&quot;edgeStyle&quot;:&quot;elbowEdgeStyle&quot;,&quot;elbow&quot;:&quot;vertical&quot;,&quot;curved&quot;:0,&quot;rounded&quot;:0};fontSize=16;" vertex="1" parent="2MSTq0rAdUkIuW6gPUsx-2">
          <mxGeometry x="45" y="47" width="10" height="80" as="geometry" />
        </mxCell>
        <mxCell id="2MSTq0rAdUkIuW6gPUsx-9" value="" style="html=1;points=[];perimeter=orthogonalPerimeter;outlineConnect=0;targetShapes=umlLifeline;portConstraint=eastwest;newEdgeStyle={&quot;edgeStyle&quot;:&quot;elbowEdgeStyle&quot;,&quot;elbow&quot;:&quot;vertical&quot;,&quot;curved&quot;:0,&quot;rounded&quot;:0};fontSize=16;" vertex="1" parent="2MSTq0rAdUkIuW6gPUsx-2">
          <mxGeometry x="45" y="140" width="10" height="80" as="geometry" />
        </mxCell>
        <mxCell id="2MSTq0rAdUkIuW6gPUsx-4" value="정렬 버튼을 클릭" style="html=1;verticalAlign=bottom;endArrow=block;edgeStyle=elbowEdgeStyle;elbow=vertical;curved=0;rounded=0;fontSize=12;startSize=8;endSize=8;" edge="1" parent="1">
          <mxGeometry relative="1" as="geometry">
            <mxPoint x="56.5" y="80" as="sourcePoint" />
            <mxPoint x="248" y="80" as="targetPoint" />
          </mxGeometry>
        </mxCell>
        <mxCell id="2MSTq0rAdUkIuW6gPUsx-6" value="정렬 기준을 보여줌" style="html=1;verticalAlign=bottom;endArrow=block;edgeStyle=elbowEdgeStyle;elbow=vertical;curved=0;rounded=0;fontSize=12;startSize=8;endSize=8;" edge="1" parent="1" target="2MSTq0rAdUkIuW6gPUsx-7">
          <mxGeometry x="-0.0027" width="80" relative="1" as="geometry">
            <mxPoint x="248" y="148" as="sourcePoint" />
            <mxPoint x="56.5" y="148" as="targetPoint" />
            <mxPoint as="offset" />
          </mxGeometry>
        </mxCell>
        <mxCell id="2MSTq0rAdUkIuW6gPUsx-7" value="" style="html=1;points=[];perimeter=orthogonalPerimeter;outlineConnect=0;targetShapes=umlLifeline;portConstraint=eastwest;newEdgeStyle={&quot;edgeStyle&quot;:&quot;elbowEdgeStyle&quot;,&quot;elbow&quot;:&quot;vertical&quot;,&quot;curved&quot;:0,&quot;rounded&quot;:0};fontSize=16;" vertex="1" parent="1">
          <mxGeometry x="51.5" y="143" width="10" height="38" as="geometry" />
        </mxCell>
        <mxCell id="2MSTq0rAdUkIuW6gPUsx-8" value="기준 원소를 선택" style="html=1;verticalAlign=bottom;endArrow=block;edgeStyle=elbowEdgeStyle;elbow=vertical;curved=0;rounded=0;fontSize=12;startSize=8;endSize=8;" edge="1" parent="1" source="2MSTq0rAdUkIuW6gPUsx-1" target="2MSTq0rAdUkIuW6gPUsx-2">
          <mxGeometry x="0.0051" width="80" relative="1" as="geometry">
            <mxPoint x="160" y="200" as="sourcePoint" />
            <mxPoint x="240" y="200" as="targetPoint" />
            <mxPoint x="1" as="offset" />
          </mxGeometry>
        </mxCell>
        <mxCell id="2MSTq0rAdUkIuW6gPUsx-11" value="기준대로 작업을 정렬" style="html=1;verticalAlign=bottom;endArrow=block;edgeStyle=elbowEdgeStyle;elbow=vertical;curved=0;rounded=0;fontSize=12;startSize=8;endSize=8;" edge="1" parent="1">
          <mxGeometry y="-2" width="80" relative="1" as="geometry">
            <mxPoint x="248" y="241" as="sourcePoint" />
            <mxPoint x="56.5" y="241" as="targetPoint" />
            <mxPoint as="offset" />
          </mxGeometry>
        </mxCell>
        <mxCell id="2MSTq0rAdUkIuW6gPUsx-12" value="uc008 작업을 정렬한다." style="shape=umlFrame;whiteSpace=wrap;html=1;pointerEvents=0;fontSize=16;width=319;height=30;" vertex="1" parent="1">
          <mxGeometry x="-23" y="-38" width="373" height="412" as="geometry" />
        </mxCell>
      </root>
    </mxGraphModel>
  </diagram>
</mxfile>
